<svg width="313" height="68" viewBox="0 0 313 68" fill="none" xmlns="http://www.w3.org/2000/svg">
<path d="M49.1211 29.2305C49.1211 33.0508 48.6641 36.5547 47.75 39.7422C46.8594 42.9062 45.4766 45.6484 43.6016 47.9688C41.7266 50.2891 39.3477 52.1055 36.4648 53.418L48.8398 67.2344H34.8828L25.4609 55.7031C25.2969 55.7031 25.1562 55.7031 25.0391 55.7031C24.9219 55.7031 24.793 55.7031 24.6523 55.7031C20.457 55.7031 16.8242 55.082 13.7539 53.8398C10.6836 52.5742 8.14062 50.7695 6.125 48.4258C4.13281 46.082 2.64453 43.2812 1.66016 40.0234C0.675781 36.7656 0.183594 33.1445 0.183594 29.1602C0.183594 23.8398 1.05078 19.2109 2.78516 15.2734C4.54297 11.3125 7.23828 8.24219 10.8711 6.0625C14.5039 3.88281 19.1211 2.79297 24.7227 2.79297C30.3008 2.79297 34.8828 3.88281 38.4688 6.0625C42.0781 8.24219 44.75 11.3125 46.4844 15.2734C48.2422 19.2344 49.1211 23.8867 49.1211 29.2305ZM11.6094 29.2305C11.6094 32.8164 12.0547 35.9102 12.9453 38.5117C13.8594 41.0898 15.2773 43.082 17.1992 44.4883C19.1211 45.8711 21.6055 46.5625 24.6523 46.5625C27.7461 46.5625 30.2539 45.8711 32.1758 44.4883C34.0977 43.082 35.4922 41.0898 36.3594 38.5117C37.25 35.9102 37.6953 32.8164 37.6953 29.2305C37.6953 23.8398 36.6875 19.5977 34.6719 16.5039C32.6562 13.4102 29.3398 11.8633 24.7227 11.8633C21.6523 11.8633 19.1445 12.5664 17.1992 13.9727C15.2773 15.3555 13.8594 17.3477 12.9453 19.9492C12.0547 22.5273 11.6094 25.6211 11.6094 29.2305ZM95 15.6953V55H86.7734L85.332 49.9727H84.7695C83.9258 51.3086 82.8711 52.3984 81.6055 53.2422C80.3398 54.0859 78.9453 54.707 77.4219 55.1055C75.8984 55.5039 74.3164 55.7031 72.6758 55.7031C69.8633 55.7031 67.4141 55.2109 65.3281 54.2266C63.2422 53.2188 61.6133 51.6602 60.4414 49.5508C59.293 47.4414 58.7188 44.6992 58.7188 41.3242V15.6953H69.4414V38.6523C69.4414 41.4648 69.9453 43.5859 70.9531 45.0156C71.9609 46.4453 73.5664 47.1602 75.7695 47.1602C77.9492 47.1602 79.6602 46.668 80.9023 45.6836C82.1445 44.6758 83.0117 43.2109 83.5039 41.2891C84.0195 39.3438 84.2773 36.9766 84.2773 34.1875V15.6953H95ZM116.973 15.6953V55H106.25V15.6953H116.973ZM111.629 0.296875C113.223 0.296875 114.594 0.671875 115.742 1.42188C116.891 2.14844 117.465 3.51953 117.465 5.53516C117.465 7.52734 116.891 8.91016 115.742 9.68359C114.594 10.4336 113.223 10.8086 111.629 10.8086C110.012 10.8086 108.629 10.4336 107.48 9.68359C106.355 8.91016 105.793 7.52734 105.793 5.53516C105.793 3.51953 106.355 2.14844 107.48 1.42188C108.629 0.671875 110.012 0.296875 111.629 0.296875ZM155.609 55H124.566V48.6719L142.777 23.8867H125.656V15.6953H154.977V22.6562L137.258 46.8086H155.609V55ZM159.934 40.0938V31.3047H178.812V40.0938H159.934ZM197.34 0.296875V13.0234C197.34 14.5 197.293 15.9648 197.199 17.418C197.129 18.8711 197.035 19.9961 196.918 20.793H197.34C198.371 19.1758 199.777 17.8047 201.559 16.6797C203.34 15.5312 205.648 14.957 208.484 14.957C212.891 14.957 216.465 16.6797 219.207 20.125C221.949 23.5703 223.32 28.6211 223.32 35.2773C223.32 39.7539 222.688 43.5156 221.422 46.5625C220.156 49.5859 218.387 51.8711 216.113 53.418C213.84 54.9414 211.203 55.7031 208.203 55.7031C205.32 55.7031 203.047 55.1875 201.383 54.1562C199.719 53.125 198.371 51.9648 197.34 50.6758H196.602L194.809 55H186.617V0.296875H197.34ZM205.039 23.5352C203.164 23.5352 201.676 23.9219 200.574 24.6953C199.473 25.4688 198.664 26.6289 198.148 28.1758C197.656 29.7227 197.387 31.6797 197.34 34.0469V35.207C197.34 39.0273 197.902 41.957 199.027 43.9961C200.152 46.0117 202.203 47.0195 205.18 47.0195C207.383 47.0195 209.129 46 210.418 43.9609C211.73 41.9219 212.387 38.9805 212.387 35.1367C212.387 31.293 211.73 28.3984 210.418 26.4531C209.105 24.5078 207.312 23.5352 205.039 23.5352ZM267.898 35.2773C267.898 38.5586 267.453 41.4648 266.562 43.9961C265.695 46.5273 264.418 48.6719 262.73 50.4297C261.066 52.1641 259.051 53.4766 256.684 54.3672C254.34 55.2578 251.691 55.7031 248.738 55.7031C245.973 55.7031 243.43 55.2578 241.109 54.3672C238.812 53.4766 236.809 52.1641 235.098 50.4297C233.41 48.6719 232.098 46.5273 231.16 43.9961C230.246 41.4648 229.789 38.5586 229.789 35.2773C229.789 30.918 230.562 27.2266 232.109 24.2031C233.656 21.1797 235.859 18.8828 238.719 17.3125C241.578 15.7422 244.988 14.957 248.949 14.957C252.629 14.957 255.887 15.7422 258.723 17.3125C261.582 18.8828 263.82 21.1797 265.438 24.2031C267.078 27.2266 267.898 30.918 267.898 35.2773ZM240.723 35.2773C240.723 37.8555 241.004 40.0234 241.566 41.7812C242.129 43.5391 243.008 44.8633 244.203 45.7539C245.398 46.6445 246.957 47.0898 248.879 47.0898C250.777 47.0898 252.312 46.6445 253.484 45.7539C254.68 44.8633 255.547 43.5391 256.086 41.7812C256.648 40.0234 256.93 37.8555 256.93 35.2773C256.93 32.6758 256.648 30.5195 256.086 28.8086C255.547 27.0742 254.68 25.7734 253.484 24.9062C252.289 24.0391 250.73 23.6055 248.809 23.6055C245.973 23.6055 243.91 24.5781 242.621 26.5234C241.355 28.4688 240.723 31.3867 240.723 35.2773ZM284.809 34.9258L272.152 15.6953H284.316L291.945 28.2109L299.645 15.6953H311.809L299.012 34.9258L312.406 55H300.207L291.945 41.5352L283.648 55H271.484L284.809 34.9258Z" fill="url(#paint0_linear_12389_56)"/>
<defs>
<linearGradient id="paint0_linear_12389_56" x1="-4" y1="156.833" x2="341.797" y2="114.182" gradientUnits="userSpaceOnUse">
<stop stop-color="#8F00FF"/>
<stop offset="1" stop-color="#00A3FF"/>
</linearGradient>
</defs>
</svg>
